# xmcd
#
# Track frame offsets:
#	150
#	11835
#	24412
#	35147
#	47688
#	57714
#	69922
#	81472
#	94717
#	105773
#	118904
#	131322
#	144267
#	154385
#	164567
#	176417
#	186251
#	197182
#	209737
#	222843
#
# Disc length: 3157 seconds
#
# Revision: 0
# Processed by: cddbd v1.5.2PL0 Copyright (c) Steve Scherf et al.
# Submitted via: audiograbber 1.83.01
#
DISCID=270c5314
DTITLE=Various Artist - Sea Of Heartbreak - 60 Classic Country Love Songs CD1
DYEAR=2019
DGENRE=Country
TTITLE0=Don Gibson - Sea Of Heartbreak
TTITLE1=Patsy Cline - Crazy
TTITLE2=Lery van Dyke - Walk On By
TTITLE3=Faron Young - Sweet Dreams
TTITLE4=Ned Miller - From A Jack To A King
TTITLE5=Hank Thompson - The Wild Side Of Life
TTITLE6=Kiity Wells - It Wasn't God Who Made Honky Tonk Angels
TTITLE7=Jerry Lee Lewis - You Win Again
TTITLE8=Hank Williams - I Can't Help It (If I'm Still In Love With You)
TTITLE9=Marty Robbins - Devil Woman
TTITLE10=Buck Owens - Under Your Spell Again
TTITLE11=Jim Reeves - Four Walls
TTITLE12=Johnny Cash - Ballad Of A Teenage Queen
TTITLE13=Wilie Nelson - Touch Me
TTITLE14=Glen Campbell - Turn Around, Look At Me
TTITLE15=Dolly Parton - The Love You Gave
TTITLE16=Hank Locklin - Please Help Me, I'm Falling
TTITLE17=Skeeter Davis - (I Can't Help You) I'm Falling Too
TTITLE18=Billy Walker - Funny How Time Slips Away
TTITLE19=Lefty Frizzell - Always Late (With Your Kisses)
EXTD=
EXTT0=
EXTT1=
EXTT2=
EXTT3=
EXTT4=
EXTT5=
EXTT6=
EXTT7=
EXTT8=
EXTT9=
EXTT10=
EXTT11=
EXTT12=
EXTT13=
EXTT14=
EXTT15=
EXTT16=
EXTT17=
EXTT18=
EXTT19=
PLAYORDER=
